# Blender v2.76 (sub 0) OBJ File: 'lens_cutout.blend'
# www.blender.org
mtllib lens_cutout.mtl
o Cube.003
v -0.011768 0.250000 0.754104
v 0.000000 0.750000 0.754104
v -0.011768 0.250000 0.250000
v 0.000000 0.750000 0.250000
v 0.125000 0.250000 0.750000
v 0.125000 0.750000 0.750000
v 0.125000 0.250000 0.250000
v 0.125000 0.750000 0.250000
v 0.125000 0.812500 0.187500
v 0.125000 0.187500 0.187500
v 0.125000 0.812500 0.812500
v 0.125000 0.187500 0.812500
v -0.011768 0.187500 0.816604
v 0.000000 0.812500 0.816604
v 0.000000 0.812500 0.187500
v -0.011768 0.187500 0.187500
vt 0.875000 0.812500
vt 1.000000 0.812500
vt 1.000000 0.187500
vt 0.875000 0.187500
vt 0.000000 0.812500
vt 0.125000 0.812500
vt 0.125000 0.187500
vt 0.000000 0.187500
vt 0.187500 0.125000
vt 0.812500 0.125000
vt 0.812500 0.000000
vt 0.187500 0.000000
vt 0.812500 0.875000
vt 0.187500 0.875000
vt 0.187500 1.000000
vt 0.812500 1.000000
vt 0.937500 0.750000
vt 0.937500 0.250000
vt 0.250000 0.937500
vt 0.750000 0.937500
vt 0.062500 0.250000
vt 0.062500 0.750000
vt 0.750000 0.062500
vt 0.250000 0.062500
vt 0.125000 0.750000
vt 0.125000 0.250000
vt 0.250000 0.250000
vt 0.250000 0.750000
vt 0.875000 0.250000
vt 0.875000 0.750000
vt 0.750000 0.750000
vt 0.750000 0.250000
vt 0.250000 0.125000
vt 0.750000 0.125000
vt 0.750000 0.875000
vt 0.250000 0.875000
vn 0.000000 0.000000 -1.000000
vn 0.031300 -0.000300 0.999500
vn -0.000000 -1.000000 -0.000000
vn 0.000000 1.000000 0.000000
vn 1.000000 0.000000 0.000000
vn -0.999800 0.020900 0.000000
vn -1.000000 0.000000 0.000000
vn -0.031300 0.000400 -0.999500
vn 0.000000 -0.000000 1.000000
usemtl None.002
s off
f 15/1/1 9/2/1 10/3/1 16/4/1
f 11/5/2 14/6/2 13/7/2 12/8/2
f 13/9/3 16/10/3 10/11/3 12/12/3
f 11/13/4 9/14/4 15/15/4 14/16/4
f 8/17/5 7/18/5 10/3/5 9/2/5
f 6/19/5 8/20/5 9/16/5 11/15/5
f 5/21/5 6/22/5 11/5/5 12/8/5
f 7/23/5 5/24/5 12/12/5 10/11/5
f 2/22/6 1/21/6 13/7/6 14/6/6
f 4/20/7 2/19/7 14/14/7 15/13/7
f 3/18/6 4/17/6 15/1/6 16/4/6
f 1/24/7 3/23/7 16/10/7 13/9/7
f 6/25/8 5/26/8 1/27/8 2/28/8
f 7/29/9 8/30/9 4/31/9 3/32/9
f 5/33/4 7/34/4 3/32/4 1/27/4
f 8/35/3 6/36/3 2/28/3 4/31/3
