# Blender v2.76 (sub 0) OBJ File: 'lens_cutout.blend'
# www.blender.org
mtllib lens_translucent.mtl
o Plane
v 0.010000 0.750000 0.750000
v 0.010000 0.250000 0.750000
v 0.010000 0.750000 0.250000
v 0.010000 0.250000 0.250000
v 0.110000 0.750000 0.750000
v 0.110000 0.250000 0.750000
v 0.110000 0.750000 0.250000
v 0.110000 0.250000 0.250000
vt 0.250000 0.750000
vt 0.750000 0.750000
vt 0.750000 0.250000
vt 0.250000 0.250000
vn -1.000000 0.000000 0.000000
vn 1.000000 -0.000000 0.000000
usemtl None
s off
f 1/1/1 3/2/1 4/3/1 2/4/1
f 5/1/2 6/4/2 8/3/2 7/2/2
