# Blender v2.76 (sub 0) OBJ File: 'energy_heater_main.blend'
# www.blender.org
mtllib energy.mtl
o Cube_Cube.000
v 0.749465 0.252354 -0.002038
v 0.749465 0.751354 -0.002038
v 0.751538 0.749500 0.249965
v 0.751538 0.250500 0.249965
v 0.252538 0.250500 0.249965
v 0.250465 0.252354 -0.002038
v 0.252538 0.749500 0.249965
v 0.250465 0.751354 -0.002038
v 0.749465 0.252354 -0.002038
v 0.749465 0.751354 -0.002038
v 0.751538 0.749500 0.249965
v 0.751538 0.250500 0.249965
v 0.252538 0.250500 0.249965
v 0.250465 0.252354 -0.002038
v 0.252538 0.749500 0.249965
v 0.250465 0.751354 -0.002038
vt 0.000000 0.000000
vt 0.000000 0.500000
vt 0.250000 0.500000
vt 0.250000 0.000000
vn 1.000000 -0.000000 -0.008200
vn -0.000000 -1.000000 -0.007400
vn -1.000000 0.000000 0.008200
vn -0.000000 1.000000 0.007400
usemtl None.001
s 1
f 1/1/1 2/2/1 3/3/1 4/4/1
f 1/1/2 4/4/2 5/3/2 6/2/2
f 8/1/3 6/2/3 5/3/3 7/4/3
f 8/1/4 7/4/4 3/3/4 2/2/4
f 9/1/3 12/4/3 11/3/3 10/2/3
f 9/1/4 14/2/4 13/3/4 12/4/4
f 16/1/1 15/4/1 13/3/1 14/2/1
f 16/1/2 10/2/2 11/3/2 15/4/2
