# Blender v2.76 (sub 0) OBJ File: 'energy_heater_main.blend'
# www.blender.org
mtllib main.mtl
o Cube_Cube.000
v 1.002003 0.252354 0.747427
v 1.002003 0.751354 0.747427
v 0.000000 0.749500 0.749500
v 0.000000 0.250500 0.749500
v 0.000000 0.250500 0.250500
v 1.002003 0.252354 0.248427
v 0.000000 0.749500 0.250500
v 1.002003 0.751354 0.248427
v 1.002003 0.252354 0.747427
v 1.002003 0.751354 0.747427
v 0.000000 0.749500 0.749500
v 0.000000 0.250500 0.749500
v 0.000000 0.250500 0.250500
v 1.002003 0.252354 0.248427
v 0.000000 0.749500 0.250500
v 1.002003 0.751354 0.248427
vt 0.000000 0.500000
vt 0.000000 1.000000
vt 1.000000 1.000000
vt 1.000000 0.500000
vn 0.002100 -0.000000 1.000000
vn 0.001900 -1.000000 -0.000000
vn -0.002100 0.000000 -1.000000
vn -0.001900 1.000000 0.000000
usemtl None.001
s 1
f 1/1/1 2/2/1 3/3/1 4/4/1
f 1/1/2 4/4/2 5/3/2 6/2/2
f 8/1/3 6/2/3 5/3/3 7/4/3
f 8/1/4 7/4/4 3/3/4 2/2/4
f 9/1/3 12/4/3 11/3/3 10/2/3
f 9/1/4 14/2/4 13/3/4 12/4/4
f 16/1/1 15/4/1 13/3/1 14/2/1
f 16/1/2 10/2/2 11/3/2 15/4/2
