# Blender v2.76 (sub 0) OBJ File: 'energy_heater_main.blend'
# www.blender.org
mtllib main.mtl
o Cube_Cube.001
v 1.000000 0.250000 0.750000
v 1.000000 0.750000 0.750000
v 0.000000 0.750000 0.750000
v 0.000000 0.250000 0.750000
v 0.000000 0.250000 0.250000
v 1.000000 0.250000 0.250000
v 1.000000 0.750000 0.250000
v 0.000000 0.750000 0.250000
v 1.000000 0.250000 0.750000
v 0.000000 0.250000 0.750000
v 0.000000 0.750000 0.750000
v 1.000000 0.750000 0.750000
v 1.000000 0.250000 0.250000
v 0.000000 0.250000 0.250000
v 1.000000 0.750000 0.250000
v 0.000000 0.750000 0.250000
v 0.250000 0.000000 0.750000
v 0.750000 0.000000 0.750000
v 0.750000 1.000000 0.750000
v 0.250000 1.000000 0.750000
v 0.250000 1.000000 0.250000
v 0.250000 0.000000 0.250000
v 0.750000 0.000000 0.250000
v 0.750000 1.000000 0.250000
v 0.250000 0.000000 0.750000
v 0.250000 1.000000 0.750000
v 0.750000 1.000000 0.750000
v 0.750000 0.000000 0.750000
v 0.250000 0.000000 0.250000
v 0.250000 1.000000 0.250000
v 0.750000 0.000000 0.250000
v 0.750000 1.000000 0.250000
vt 0.000000 0.000000
vt 0.000000 0.500000
vt 1.000000 0.500000
vt 1.000000 0.000000
vt 0.000000 1.000000
vt 1.000000 1.000000
vn 0.000000 0.000000 1.000000
vn 0.000000 -1.000000 0.000000
vn 0.000000 0.000000 -1.000000
vn 0.000000 1.000000 0.000000
vn -1.000000 0.000000 0.000000
vn 1.000000 0.000000 0.000000
usemtl None.000
s 1
f 1/1/1 2/2/1 3/3/1 4/4/1
f 1/1/2 4/4/2 5/3/2 6/2/2
f 7/1/3 6/2/3 5/3/3 8/4/3
f 7/1/4 8/4/4 3/3/4 2/2/4
f 9/1/3 10/4/3 11/3/3 12/2/3
f 9/1/4 13/2/4 14/3/4 10/4/4
f 15/1/1 16/4/1 14/3/1 13/2/1
f 15/1/2 12/2/2 11/3/2 16/4/2
f 17/2/1 18/5/1 19/6/1 20/3/1
f 17/2/5 20/3/5 21/6/5 22/5/5
f 23/2/3 22/5/3 21/6/3 24/3/3
f 23/2/6 24/3/6 19/6/6 18/5/6
f 25/2/3 26/3/3 27/6/3 28/5/3
f 25/2/6 29/5/6 30/6/6 26/3/6
f 31/2/1 32/3/1 30/6/1 29/5/1
f 31/2/5 28/5/5 27/6/5 32/3/5
